<?xml version="1.0" encoding="utf-8"?>
<svg width="150px" height="150px" viewBox="0 0 440 440" xmlns="http://www.w3.org/2000/svg">
  <g transform="matrix(1, 0, 0, 1, -615.973022, -204.230011)">
    <g>
      <g>
        <g>
          <g>
            <path d="M 615.973 414.411 L 690.113 467.833 L 690.091 365.888 L 615.973 414.411 Z"/>
            <path d="M 648.933 498.231 L 690.024 466.889 L 737.474 466.696 L 737.339 450.524 L 705.534 450.929 C 705.534 450.929 705.669 424.35 705.534 424.35 C 705.399 424.35 737.204 424.425 737.204 424.425 L 737.204 407.849 L 705.4 408.253 L 705.4 381.435 L 737.743 381.57 L 737.474 365.129 C 737.474 365.129 690.031 366.04 690.031 365.905 C 690.031 365.77 829.861 275.614 829.861 275.614 L 824.757 336.419 L 803.334 360.644 L 755.769 364.955 L 756.012 466.57 L 771.381 466.453 L 748.183 505.907"/>
            <path d="M 750.631 365.022 C 750.631 365.022 765.327 364.335 765.713 364.39 C 766.099 364.445 796.215 360.86 808.472 386.118 C 820.729 411.376 805.403 429.087 805.403 429.087 C 805.403 429.087 801.207 436.051 791.147 441.31 C 781.087 446.569 771.36 445.401 771.36 445.401 L 771.279 466.41 L 746.895 468.257 L 717.694 503.039 L 745.377 505.329 L 731.142 535.585 L 772.495 524.624 L 842.781 574.556 L 840.072 507.06 L 828.526 467.447 L 828.205 364.085 L 832.461 327.363 L 829.93 275.23"/>
          </g>
          <path d="M 771.862 429.513 L 771.778 380.311 C 771.778 380.311 796.281 378.8 796.952 404.814 C 797.623 430.828 771.945 429.569 771.862 429.513 Z"/>
        </g>
        <path d="M 843.907 364.308 L 814.868 364.398 L 831.21 328.418 L 847.809 294.671 L 882.796 321.081 L 922.6 364.925 L 857.094 365.004 C 857.094 365.004 857.034 381.643 857.034 381.583 C 857.034 381.523 882.052 381.703 882.052 381.703 L 882.33 466.424 L 897.963 466.438 L 898.105 498.589 L 873.533 498.508 L 831.166 509.773 L 824.323 466.984 L 844.147 466.691 L 843.907 364.308 Z"/>
      </g>
      <path d="M 882.315 321.465 L 939.234 278.027 L 989.771 401.404 L 1056.394 451.079 L 998.356 467.827 L 956.559 360.728 L 914.576 467.053 L 922.157 498.5 C 922.157 498.5 899.395 498.311 897.831 498.614 C 896.267 498.917 888.602 466.961 888.602 466.961 C 888.602 466.961 898.767 466.975 898.377 466.196 C 897.987 465.417 897.936 381.45 898.326 381.45 C 898.716 381.45 921.674 381.322 921.674 381.322 L 921.744 364.768 L 851.695 364.899 L 857.77 337.641 L 882.315 321.465 Z"/>
      <path d="M 937.769 453.095 C 937.769 453.095 932.442 467.508 932.364 467.508 C 932.286 467.508 909.02 466.96 909.02 466.96 L 850.981 497.413 L 921.945 498.607 L 1029.465 498.642 L 1009.918 450.723 L 998.245 467.518 C 998.245 467.518 980.407 467.803 980.502 467.708 C 980.597 467.613 975.472 453.76 975.472 453.76 L 937.769 453.095 Z"/>
    </g>
    <path d="M 944.083 437.318 L 969.247 437.459 L 956.524 404.45 L 944.083 437.318 Z"/>
  </g>
</svg>